<?xml version="1.0" standalone="no"?>
<!DOCTYPE svg PUBLIC "-//W3C//DTD SVG 20010904//EN"
 "http://www.w3.org/TR/2001/REC-SVG-20010904/DTD/svg10.dtd">
<svg version="1.0" xmlns="http://www.w3.org/2000/svg"
 width="300.000000pt" height="274.000000pt" viewBox="0 0 300.000000 274.000000"
 preserveAspectRatio="xMidYMid meet">
<g transform="translate(0.000000,274.000000) scale(0.100000,-0.100000)"
fill="#000000" stroke="none">
<path d="M1045 2577 c-121 -48 -205 -155 -235 -301 -23 -111 -6 -193 100 -490
38 -108 70 -200 70 -205 0 -7 -118 -126 -216 -218 -139 -128 -320 -360 -408
-521 -127 -233 -167 -455 -107 -595 23 -54 82 -122 125 -145 79 -42 223 -44
338 -5 134 46 323 191 405 313 176 261 203 549 93 994 -16 65 -26 124 -22 131
11 19 144 130 252 211 105 78 194 133 255 159 47 19 95 62 95 85 0 8 -13 23
-28 32 -23 14 -36 15 -72 7 -71 -16 -213 -93 -385 -207 -88 -59 -166 -107
-174 -107 -17 0 -162 382 -169 446 -3 33 2 59 16 93 23 50 111 150 153 172 40
20 89 73 89 95 0 11 -12 31 -26 44 -30 28 -95 33 -149 12z m129 -30 c28 -20
13 -48 -45 -82 -66 -39 -155 -133 -180 -190 -30 -68 -27 -133 14 -245 86 -236
141 -385 143 -388 2 -2 38 23 81 56 212 161 463 302 538 302 25 0 45 -4 45
-10 0 -5 -45 -32 -99 -59 -136 -67 -309 -191 -495 -353 l-38 -33 35 -141 c104
-413 88 -690 -52 -923 -208 -344 -659 -499 -808 -277 -43 62 -53 103 -53 207
0 198 113 442 327 709 66 82 209 230 362 375 l74 70 -47 135 c-145 410 -156
455 -132 567 8 39 24 90 36 114 26 52 93 124 135 146 60 32 131 41 159 20z"/>
<path d="M904 1317 c-232 -235 -345 -382 -443 -575 -110 -219 -133 -429 -55
-521 32 -38 68 -45 156 -31 197 33 400 206 507 431 65 135 76 190 76 374 0
153 -2 166 -39 310 -21 83 -41 153 -45 157 -4 4 -74 -61 -157 -145z m165 -7
c41 -150 54 -247 47 -360 -11 -188 -57 -314 -176 -475 -100 -136 -302 -255
-432 -255 -89 0 -112 41 -106 189 6 122 35 212 114 360 45 83 153 245 191 286
10 11 29 34 41 50 39 51 275 285 288 285 7 0 22 -36 33 -80z"/>
<path d="M2223 2577 c-164 -61 -267 -265 -234 -464 7 -43 49 -181 94 -307 l80
-228 -166 -165 c-92 -90 -198 -201 -236 -246 -339 -407 -451 -807 -279 -1002
50 -56 101 -84 176 -93 295 -38 648 231 756 575 63 201 55 448 -24 759 -23 88
-27 119 -19 132 20 30 197 174 307 250 59 41 144 92 190 114 84 40 108 64 97
98 -5 17 -46 38 -70 35 -82 -9 -324 -143 -525 -290 -28 -20 -55 -35 -61 -33
-22 7 -169 416 -169 470 0 75 97 204 199 264 35 21 62 64 55 91 -12 46 -99 66
-171 40z m140 -36 c17 -17 -3 -46 -54 -76 -66 -39 -155 -133 -180 -191 -37
-84 -31 -124 65 -381 47 -128 86 -237 86 -243 0 -18 11 -11 89 49 110 85 260
181 383 245 85 44 118 56 153 56 25 0 45 -4 45 -10 0 -5 -45 -32 -100 -59
-141 -70 -368 -234 -513 -371 -18 -17 -17 -22 17 -157 46 -186 66 -326 66
-469 0 -195 -40 -331 -140 -482 -216 -328 -643 -462 -787 -248 -43 62 -53 103
-53 207 0 197 111 439 326 709 63 79 324 345 405 412 l36 30 -59 161 c-129
357 -147 436 -123 551 36 170 168 296 294 281 19 -2 38 -8 44 -14z"/>
<path d="M2084 1318 c-235 -239 -346 -383 -447 -583 -77 -153 -115 -344 -88
-442 15 -54 53 -100 92 -108 52 -12 166 14 249 57 154 79 280 212 359 378 64
135 76 192 76 370 0 147 -2 163 -40 317 -22 90 -42 163 -45 163 -3 0 -73 -69
-156 -152z m166 -10 c51 -190 61 -320 35 -463 -22 -126 -33 -154 -104 -279
-86 -153 -258 -292 -406 -331 -154 -40 -195 -7 -195 156 0 166 71 332 257 599
65 94 355 400 379 400 6 0 22 -37 34 -82z"/>
</g>
</svg>
